<svg width="1100" height="1100" xmlns="http://www.w3.org/2000/svg">
 <g>
  <title>Layer 1</title>
  <desc>Created with Fabric.js 5.2.4</desc>

  <rect fill="transparent" height="100%" width="100%" y="0" x="0"/>
  <g id="svg_37" transform="matrix(1 0 0 1 540 540)">
   <rect fill-rule=" nonzero" fill=" rgb(255,255,255)" stroke-miterlimit="4" stroke-linejoin=" miter" stroke-dashoffset="0" stroke-linecap=" butt" stroke-dasharray=" none" stroke=" none" height="1080" width="1080" y="-540" x="-540" vector-effect="non-scaling-stroke"/>
  </g>
  <g id="svg_36" transform="matrix(1 0 0 1 540 540)"/>
  <g transform="matrix(0 0 0 0 0 0)">
   <g/>
  </g>
  <g transform="matrix(1 0 0 1 50 50)">
   <rect fill-rule=" nonzero" fill-opacity="0" fill=" rgb(255,255,255)" stroke-miterlimit="4" stroke-linejoin=" miter" stroke-dashoffset="0" stroke-linecap=" butt" stroke-dasharray=" none" stroke=" none" height="100" width="100" y="-50" x="-50" vector-effect="non-scaling-stroke"/>
  </g>
  <g transform="matrix(1 0 0 1 540 540)">
   <rect fill-rule=" nonzero" fill=" rgb(255,255,255)" stroke-miterlimit="4" stroke-linejoin=" miter" stroke-dashoffset="0" stroke-linecap=" butt" stroke-dasharray=" none" stroke=" none" height="1080" width="1080" y="-540" x="-540" vector-effect="non-scaling-stroke"/>
  </g>
  <g id="svg_34" transform="matrix(1 0 0 14.26 67.08 540.5)">
   <rect fill-rule=" nonzero" fill=" rgb(101,101,101)" stroke-miterlimit="4" stroke-linejoin=" miter" stroke-dashoffset="0" stroke-linecap=" butt" stroke-dasharray=" none" stroke-width="0" stroke=" rgb(0,0,0)" height="66.167" width="66.167" y="-33.0835" x="-33.0835" vector-effect="non-scaling-stroke"/>
  </g>
  <g id="8075441e-14ca-447f-b825-d562d2eaf3ea" transform="matrix(1 0 0 8.10584 1011.54 744.317)">
   <rect fill-rule=" nonzero" fill=" rgb(101,101,101)" stroke-miterlimit="4" stroke-linejoin=" miter" stroke-dashoffset="0" stroke-linecap=" butt" stroke-dasharray=" none" stroke-width="0" stroke=" rgb(0,0,0)" height="66.17" width="66.17" y="-33.085" x="-33.085" vector-effect="non-scaling-stroke"/>
  </g>
  <g id="8075441e-14ca-447f-b825-d562d2eaf3ea" transform="matrix(0 1 -8.40692 0 341.12 62.99)">
   <rect fill-rule=" nonzero" fill=" rgb(101,101,101)" stroke-miterlimit="4" stroke-linejoin=" miter" stroke-dashoffset="0" stroke-linecap=" butt" stroke-dasharray=" none" stroke-width="0" stroke=" rgb(0,0,0)" height="66.17" width="66.17" y="-33.085" x="-33.085" vector-effect="non-scaling-stroke"/>
  </g>
  <g id="svg_35" transform="matrix(5.28292 0 0 5.28292 857.602 221.678)">
   <path fill-rule=" nonzero" fill=" rgb(101,101,101)" stroke-miterlimit="4" stroke-linejoin=" miter" stroke-dashoffset="0" stroke-dasharray=" none" stroke-width="0" stroke=" rgb(0,0,0)" stroke-linecap=" butt" d="m40.747,13.955l18.507,0c1.099,0 1.988,0.89 1.988,1.986l0,22.846l22.844,0c1.098,0 1.984,0.888 1.984,1.986l0,18.453c0,1.099 -0.887,1.986 -1.984,1.986l-22.844,0l0,22.846c0,1.099 -0.89,1.986 -1.988,1.986l-18.507,0c-1.095,0 -1.985,-0.888 -1.985,-1.986l0,-22.845l-22.847,0c-1.095,0 -1.985,-0.888 -1.985,-1.986l0,-18.454c0,-1.099 0.89,-1.986 1.985,-1.986l22.847,0l0,-22.846c0,-1.096 0.889,-1.986 1.985,-1.986z" transform=" translate(-50, -50)" vector-effect="non-scaling-stroke"/>
  </g>
  <g id="8075441e-14ca-447f-b825-d562d2eaf3ea" transform="matrix(0.49 0.87 -7.3 4.08 303.79 896.54)">
   <rect fill-rule=" nonzero" fill=" rgb(101,101,101)" stroke-miterlimit="4" stroke-linejoin=" miter" stroke-dashoffset="0" stroke-linecap=" butt" stroke-dasharray=" none" stroke-width="0" stroke=" rgb(0,0,0)" height="66.17" width="66.17" y="-33.085" x="-33.085" vector-effect="non-scaling-stroke"/>
  </g>
  <g id="svg_33" transform="matrix(1 0 0 1.16 67.62 1020.72)">
   <circle fill-rule=" nonzero" fill=" rgb(101,101,101)" stroke-miterlimit="4" stroke-linejoin=" miter" stroke-dashoffset="0" stroke-linecap=" butt" stroke-dasharray=" none" stroke-width="0" stroke=" rgb(0,0,0)" r="35" cy="0" cx="0" vector-effect="non-scaling-stroke"/>
  </g>
  <g id="e9c8eaf9-6bf0-423b-ba73-a54841385148" transform="matrix(0.93 0 0 0.94 541.53 763.2)">
   <circle fill-rule=" nonzero" fill=" rgb(101,101,101)" stroke-miterlimit="4" stroke-linejoin=" miter" stroke-dashoffset="0" stroke-linecap=" butt" stroke-dasharray=" none" stroke-width="0" stroke=" rgb(0,0,0)" r="35" cy="0" cx="0" vector-effect="non-scaling-stroke"/>
  </g>
  <g id="8075441e-14ca-447f-b825-d562d2eaf3ea" transform="matrix(-0.49 0.87 -7.14 -4.02 775.12 896.08)">
   <rect fill-rule=" nonzero" fill=" rgb(101,101,101)" stroke-miterlimit="4" stroke-linejoin=" miter" stroke-dashoffset="0" stroke-linecap=" butt" stroke-dasharray=" none" stroke-width="0" stroke=" rgb(0,0,0)" height="66.17" width="66.17" y="-33.085" x="-33.085" vector-effect="non-scaling-stroke"/>
  </g>
  <g id="e9c8eaf9-6bf0-423b-ba73-a54841385148" transform="matrix(1 0 0 1.16 1010.62 1020.55)">
   <circle fill-rule=" nonzero" fill=" rgb(101,101,101)" stroke-miterlimit="4" stroke-linejoin=" miter" stroke-dashoffset="0" stroke-linecap=" butt" stroke-dasharray=" none" stroke-width="0" stroke=" rgb(0,0,0)" r="35" cy="0" cx="0" vector-effect="non-scaling-stroke"/>
  </g>
  <g id="e9c8eaf9-6bf0-423b-ba73-a54841385148" transform="matrix(0.96 0 0 1.16 1012.05 299.55)">
   <circle fill-rule=" nonzero" fill=" rgb(101,101,101)" stroke-miterlimit="4" stroke-linejoin=" miter" stroke-dashoffset="0" stroke-linecap=" butt" stroke-dasharray=" none" stroke-width="0" stroke=" rgb(0,0,0)" r="35" cy="153.2567" cx="0" vector-effect="non-scaling-stroke"/>
  </g>
  <g id="e9c8eaf9-6bf0-423b-ba73-a54841385148" transform="matrix(0 0.96 -1.16 0 779.16 62.82)">
   <circle fill-rule=" nonzero" fill=" rgb(101,101,101)" stroke-miterlimit="4" stroke-linejoin=" miter" stroke-dashoffset="0" stroke-linecap=" butt" stroke-dasharray=" none" stroke-width="0" stroke=" rgb(0,0,0)" r="35" cy="134.09961" cx="0" vector-effect="non-scaling-stroke"/>
  </g>
  <g id="e9c8eaf9-6bf0-423b-ba73-a54841385148" transform="matrix(0.93 0 0 0.94 65.62 63.98)">
   <circle fill-rule=" nonzero" fill=" rgb(101,101,101)" stroke-miterlimit="4" stroke-linejoin=" miter" stroke-dashoffset="0" stroke-linecap=" butt" stroke-dasharray=" none" stroke-width="0" stroke=" rgb(0,0,0)" r="35" cy="0" cx="0" vector-effect="non-scaling-stroke"/>
  </g>
 </g>

</svg>