<?xml version="1.0" encoding="UTF-8"?>
<svg version="1.1" xmlns="http://www.w3.org/2000/svg" width="353" height="354">
<path d="M0 0 C0.84449707 0.19835449 1.68899414 0.39670898 2.55908203 0.60107422 C22.28207569 5.4290787 41.50883929 14.1536365 58 26 C59.52753906 27.07507812 59.52753906 27.07507812 61.0859375 28.171875 C68.57247645 33.5991346 75.32629371 39.62552238 82 46 C82.86625 46.81339844 83.7325 47.62679687 84.625 48.46484375 C108.48987268 71.47207257 123.23863323 102.13187342 131 134 C131.28810547 135.15072998 131.28810547 135.15072998 131.58203125 136.32470703 C137.31119963 160.37300063 135.74684027 189.15238661 130 213 C129.79632813 213.85368164 129.59265625 214.70736328 129.3828125 215.58691406 C121.66212532 246.64838238 104.87196954 273.07236979 83 296 C81.95005859 297.11181641 81.95005859 297.11181641 80.87890625 298.24609375 C51.36131108 328.71395355 7.80411823 346.51433895 -34.28581238 347.31910706 C-49.00011374 347.52003157 -63.60202623 347.34921261 -78 344 C-78.83176758 343.80664062 -79.66353516 343.61328125 -80.52050781 343.4140625 C-104.32131912 337.64848279 -126.24474424 327.32743838 -146 312.9375 C-147.16619873 312.08925659 -147.16619873 312.08925659 -148.35595703 311.22387695 C-153.70525445 307.22427853 -158.37826368 302.81232339 -163 298 C-165.51648222 295.47246442 -168.03984827 292.96175996 -170.61328125 290.4921875 C-197.88075418 264.0533932 -215.55981574 223.13891314 -217.16113281 185.18041992 C-217.20717782 180.84924447 -217.24666204 176.51892462 -217.25 172.1875 C-217.25067474 171.40310547 -217.25134949 170.61871094 -217.25204468 169.81054688 C-217.23583724 157.95457556 -216.73896017 146.58098052 -214 135 C-213.82307617 134.21818359 -213.64615234 133.43636719 -213.46386719 132.63085938 C-205.04739115 96.02863716 -184.64212271 60.55739319 -155 37 C-154.11957031 36.27039062 -153.23914063 35.54078125 -152.33203125 34.7890625 C-109.81011041 0.62062421 -53.21707073 -12.69986464 0 0 Z " fill="#FE0000" transform="translate(217,5)"/>
<path d="M0 0 C0.84449707 0.19835449 1.68899414 0.39670898 2.55908203 0.60107422 C22.28207569 5.4290787 41.50883929 14.1536365 58 26 C59.52753906 27.07507812 59.52753906 27.07507812 61.0859375 28.171875 C68.57247645 33.5991346 75.32629371 39.62552238 82 46 C82.86625 46.81339844 83.7325 47.62679687 84.625 48.46484375 C108.48987268 71.47207257 123.23863323 102.13187342 131 134 C131.28810547 135.15072998 131.28810547 135.15072998 131.58203125 136.32470703 C137.31119963 160.37300063 135.74684027 189.15238661 130 213 C129.79632813 213.85368164 129.59265625 214.70736328 129.3828125 215.58691406 C121.66212532 246.64838238 104.87196954 273.07236979 83 296 C81.95005859 297.11181641 81.95005859 297.11181641 80.87890625 298.24609375 C51.36131108 328.71395355 7.80411823 346.51433895 -34.28581238 347.31910706 C-49.00011374 347.52003157 -63.60202623 347.34921261 -78 344 C-78.83176758 343.80664062 -79.66353516 343.61328125 -80.52050781 343.4140625 C-104.32131912 337.64848279 -126.24474424 327.32743838 -146 312.9375 C-147.16619873 312.08925659 -147.16619873 312.08925659 -148.35595703 311.22387695 C-153.70525445 307.22427853 -158.37826368 302.81232339 -163 298 C-165.51648222 295.47246442 -168.03984827 292.96175996 -170.61328125 290.4921875 C-197.88075418 264.0533932 -215.55981574 223.13891314 -217.16113281 185.18041992 C-217.20717782 180.84924447 -217.24666204 176.51892462 -217.25 172.1875 C-217.25067474 171.40310547 -217.25134949 170.61871094 -217.25204468 169.81054688 C-217.23583724 157.95457556 -216.73896017 146.58098052 -214 135 C-213.82307617 134.21818359 -213.64615234 133.43636719 -213.46386719 132.63085938 C-205.04739115 96.02863716 -184.64212271 60.55739319 -155 37 C-154.11957031 36.27039062 -153.23914063 35.54078125 -152.33203125 34.7890625 C-109.81011041 0.62062421 -53.21707073 -12.69986464 0 0 Z M-75.40332031 12.99389648 C-79.01902283 14.00532128 -82.62858712 14.78131643 -86.3125 15.5 C-92.45226017 16.77588587 -98.18734486 18.66307538 -104 21 C-104 21.66 -104 22.32 -104 23 C-104.55945313 23.12375 -105.11890625 23.2475 -105.6953125 23.375 C-125.1527443 28.38012715 -141.83164746 43.36509447 -156 57 C-156.6909375 57.62777344 -157.381875 58.25554688 -158.09375 58.90234375 C-185.31227655 84.39182456 -201.76941152 124.91986759 -203.10058594 161.78564453 C-203.5926933 180.44623414 -202.26159786 198.05238614 -197 216 C-196.68289062 217.08498779 -196.68289062 217.08498779 -196.359375 218.19189453 C-184.16068641 259.03445146 -155.81406684 293.30364003 -118.93359375 314.4453125 C-115.57799508 316.22364575 -112.19842771 317.6385916 -108.64453125 318.96484375 C-104.35924752 320.64224433 -100.23277029 322.65782102 -96.078125 324.6328125 C-90.54016347 327.09256699 -85.07786691 328.46816973 -79.125 329.5 C-77.77299215 329.73705725 -76.42142523 329.97664309 -75.0703125 330.21875 C-74.38815674 330.34024414 -73.70600098 330.46173828 -73.00317383 330.58691406 C-71.12825149 330.97355253 -69.28848612 331.52081349 -67.45703125 332.078125 C-60.99054489 333.73182869 -54.19188686 333.29885872 -47.5625 333.25 C-46.49011078 333.2463443 -46.49011078 333.2463443 -45.39605713 333.24261475 C-34.7913752 333.20009492 -24.48593434 332.66113811 -14 331 C-12.75605469 330.855625 -11.51210937 330.71125 -10.23046875 330.5625 C-3.85871735 329.80250409 1.6220411 328.66459146 7.48046875 326.04296875 C10.24154923 324.90000985 12.98401528 324.19055193 15.875 323.4375 C25.62738393 320.52565077 34.26953774 315.12644165 43 310 C44.10214844 309.35417969 45.20429688 308.70835937 46.33984375 308.04296875 C59.95917661 299.69941763 73.04277473 288.51190731 83 276 C83.43425293 275.45633789 83.86850586 274.91267578 84.31591797 274.35253906 C112.56557844 238.69359578 125.4150212 195.56051475 120.1796875 150.1652832 C117.92730722 133.43267355 113.2611318 118.20557183 106 103 C105.71366699 102.38640625 105.42733398 101.7728125 105.13232422 101.140625 C94.88732069 79.23468942 79.27839655 59.63825057 60 45 C58.91640129 44.14226223 57.83308044 43.28417335 56.75 42.42578125 C44.18982622 32.66768146 30.02418483 24.30070468 15 19 C13.9275 18.505 12.855 18.01 11.75 17.5 C-5.92813259 9.99070474 -26.5249167 9.71182788 -45.4375 9.5625 C-46.1905542 9.55046539 -46.9436084 9.53843079 -47.71948242 9.52603149 C-57.43012182 9.39304348 -66.04237572 10.35604401 -75.40332031 12.99389648 Z " fill="#030000" transform="translate(217,5)"/>
<path d="M0 0 C3.26023853 2.5078758 4.20331964 3.89819661 5.4375 7.875 C6.6128526 20.67328389 4.10063788 33.82952234 2.5625 46.5 C2.28964129 48.78507 2.01750104 51.07022591 1.74609375 53.35546875 C1.61324478 54.47359451 1.48039581 55.59172028 1.34352112 56.74372864 C0.82424764 61.12242359 0.30645342 65.50128932 -0.20877075 69.88046265 C-0.43319352 71.7803405 -0.65972734 73.67997113 -0.88912964 75.57925415 C-2.19170694 86.41767542 -2.90982495 97.11039333 -2.87817383 108.0300293 C-2.87496518 110.33753802 -2.89880362 112.64381528 -2.92382812 114.95117188 C-2.95488207 122.85519138 -2.5179151 129.8575981 -0.11010742 137.47680664 C0.48106132 140.06577254 0.41411568 141.4239062 -0.5625 143.875 C-4.13635654 146.3315311 -7.78670176 146.53748196 -12.0234375 146.4375 C-15.8813966 145.58281368 -17.61287867 143.55931441 -20.08984375 140.6015625 C-25.82415843 129.98471463 -24.91685628 118.79554338 -24.78515625 107.08203125 C-24.7744584 105.04718296 -24.76540845 103.0123254 -24.75791931 100.97746277 C-24.73521978 95.63531225 -24.69623318 90.29342664 -24.6519165 84.95141602 C-24.58157354 76.42157396 -24.52609363 67.89175331 -24.48956108 59.36170006 C-24.47307309 56.40673763 -24.44349884 53.45211321 -24.41285706 50.49726868 C-24.31078163 36.50303272 -24.84697926 23.44872579 -29.7578125 10.16796875 C-30.5625 7.875 -30.5625 7.875 -30.5625 5.875 C-24.0625 1.875 -24.0625 1.875 -19.5625 1.875 C-19.5625 1.215 -19.5625 0.555 -19.5625 -0.125 C-13.26231595 -1.99395412 -6.23607732 -1.96928758 0 0 Z " fill="#030000" transform="translate(188.5625,78.125)"/>
<path d="M0 0 C1.12921875 -0.00386719 1.12921875 -0.00386719 2.28125 -0.0078125 C4.473535 0.12341583 6.39319137 0.52168662 8.5 1.125 C8.5 1.785 8.5 2.445 8.5 3.125 C9.09296875 3.23457031 9.6859375 3.34414062 10.296875 3.45703125 C13.57110592 4.4497502 15.14992156 6.07839389 17.2890625 8.6953125 C19.85260715 13.8389408 19.28532681 19.56781452 18.5 25.125 C17.24392398 28.64581914 15.47102788 30.53159407 12.25 32.5 C11.6725 32.70625 11.095 32.9125 10.5 33.125 C10.5 33.785 10.5 34.445 10.5 35.125 C4.76457627 38.11739499 -0.05093447 38.88434271 -6.5 38.125 C-11.9451873 36.34484261 -15.28226393 32.736739 -18.5 28.125 C-20.33541691 22.61874927 -20.64412545 16.1875082 -18.59375 10.69921875 C-15.74804354 5.85604526 -12.09968766 2.24112492 -6.59765625 0.53515625 C-4.34971497 0.09561466 -2.2893819 -0.00784035 0 0 Z " fill="#080000" transform="translate(177.5,242.875)"/>
<path d="" fill="#000000" transform="translate(0,0)"/>
<path d="" fill="#000000" transform="translate(0,0)"/>
</svg>
